<?xml version="1.0" encoding="UTF-8"?>
<svg version="1.1" xmlns="http://www.w3.org/2000/svg" width="512" height="512">
<path d="M0 0 C7.71276614 5.05552227 15.79143581 9.22169731 24.0703125 13.27148438 C33.34712749 17.91213699 42.60313608 23.14691539 46.87402344 32.98852539 C48.02529688 37.39985024 48.09098188 41.8196054 48.19042969 46.35180664 C48.21121078 47.14378952 48.23199188 47.9357724 48.25340271 48.75175476 C48.31850148 51.26809467 48.37759766 53.78453411 48.43652344 56.30102539 C48.47974644 58.012624 48.52336192 59.72421274 48.56738281 61.43579102 C48.67487659 65.61993553 48.77424408 69.80416141 48.87402344 73.98852539 C58.77402344 73.49352539 58.77402344 73.49352539 68.87402344 72.98852539 C69.07898438 70.54317383 69.28394531 68.09782227 69.49511719 65.57836914 C69.69653608 63.1920159 69.89865019 60.80572247 70.10083008 58.41943359 C70.24022814 56.76975521 70.37891122 55.12001624 70.5168457 53.47021484 C70.71602309 51.08943387 70.91782946 48.70888762 71.12011719 46.32836914 C71.18057724 45.59891586 71.24103729 44.86946259 71.30332947 44.11790466 C71.47851259 42.07307223 71.67552073 40.0312027 71.87402344 37.98852539 C71.9791626 36.73080322 72.08430176 35.47308105 72.19262695 34.17724609 C72.9632479 30.57098304 73.57314041 29.70807913 76.53027344 27.62915039 C77.29654053 27.07654541 78.06280762 26.52394043 78.85229492 25.95458984 C79.68446533 25.38828857 80.51663574 24.8219873 81.37402344 24.23852539 C82.23261963 23.63290771 83.09121582 23.02729004 83.97583008 22.40332031 C86.59175618 20.57243693 89.22845414 18.77623549 91.87402344 16.98852539 C92.98366455 16.22886475 92.98366455 16.22886475 94.11572266 15.45385742 C133.32973339 -11.27591625 133.32973339 -11.27591625 147.87402344 -11.01147461 C155.99747894 -9.34985871 162.71358323 -4.79352157 169.60986328 -0.43334961 C175.35107486 3.16189243 181.22150858 6.27734651 187.31152344 9.23852539 C211.13656991 20.88234509 211.13656991 20.88234509 217.87402344 30.98852539 C218.24715027 33.36816081 218.51465435 35.76484916 218.72558594 38.16430664 C218.78961609 38.87767685 218.85364624 39.59104706 218.9196167 40.32603455 C219.12373085 42.65024683 219.31294425 44.97530352 219.49902344 47.30102539 C219.56406067 48.09174438 219.6290979 48.88246338 219.69610596 49.69714355 C222.47203147 83.77074311 222.47203147 83.77074311 218.62792969 99.79711914 C217.79109736 103.06440666 217.79109736 103.06440666 217.43261719 106.77758789 C216.87402344 109.98852539 216.87402344 109.98852539 214.37402344 111.92602539 C213.5503125 112.38041992 213.5503125 112.38041992 212.70996094 112.84399414 C210.49439445 114.22518772 208.85726435 115.90520342 206.99902344 117.73852539 C202.39682441 121.9364772 197.4564337 124.35313956 191.88696289 126.98754883 C186.6686982 129.49016729 182.1827636 132.46672796 177.57324219 135.98071289 C154.98509255 152.78289656 154.98509255 152.78289656 143.81152344 152.17602539 C133.26105683 149.99403058 124.39225269 144.70616959 115.62402344 138.67602539 C108.92237703 134.17122943 102.30832414 129.9347558 94.99902344 126.48852539 C84.15945464 121.33922179 74.53769219 114.33604844 69.93652344 102.80102539 C68.14868861 96.67442066 68.69019726 90.29989081 68.87402344 83.98852539 C62.27402344 83.98852539 55.67402344 83.98852539 48.87402344 83.98852539 C48.93589844 86.30883789 48.93589844 86.30883789 48.99902344 88.67602539 C48.93497904 105.17813138 48.93497904 105.17813138 44.81152344 110.80102539 C43.35746094 111.88383789 43.35746094 111.88383789 41.87402344 112.98852539 C41.2565625 113.58793945 40.63910156 114.18735352 40.00292969 114.80493164 C34.96011201 119.68119754 29.75531593 122.76923471 23.53417969 125.94165039 C19.20479866 128.25921957 15.28582705 131.11659949 11.31152344 133.98852539 C-2.74983987 144.09059114 -16.09860019 152.88858305 -34.12597656 150.98852539 C-40.55942296 149.70183611 -45.76835481 146.68192676 -51.12597656 142.98852539 C-51.20887939 143.63805176 -51.29178223 144.28757813 -51.37719727 144.95678711 C-52.40037536 149.0995408 -54.22208311 152.68113736 -56.10644531 156.49633789 C-56.51130661 157.32674591 -56.91616791 158.15715393 -57.33329773 159.01272583 C-58.65387997 161.71605015 -59.98333796 164.41489198 -61.31347656 167.11352539 C-62.22590608 168.97510191 -63.1381774 170.83675597 -64.05029297 172.69848633 C-69.75838816 184.3213596 -75.57704734 195.87993725 -81.63452148 207.32495117 C-93.01961642 227.99999644 -93.01961642 227.99999644 -93.46191406 250.96118164 C-87.98402307 267.83392221 -78.48531856 283.65389443 -70.16870117 299.26196289 C-63.22559089 312.36692603 -56.72599452 325.70854143 -50.12597656 338.98852539 C-49.25714844 338.57135254 -48.38832031 338.15417969 -47.49316406 337.72436523 C-46.34074219 337.17989746 -45.18832031 336.63542969 -44.00097656 336.07446289 C-42.86402344 335.53354004 -41.72707031 334.99261719 -40.55566406 334.43530273 C-32.31414147 330.95870372 -23.74688352 329.62681811 -15.34082031 333.02368164 C-8.17139782 336.14686922 -1.73025258 339.8549176 4.77783203 344.19580078 C11.39792178 348.50421064 18.44217691 351.99966632 25.52709961 355.47509766 C33.88083236 359.67537494 42.76654183 364.91602372 47.87402344 372.98852539 C48.51600798 375.86077025 48.61692444 378.6934178 48.70214844 381.62915039 C48.76024689 382.8898233 48.76024689 382.8898233 48.81951904 384.17596436 C48.93858042 386.86307466 49.03126257 389.55039282 49.12402344 392.23852539 C49.20051006 393.999014 49.27862066 395.75943285 49.35839844 397.51977539 C51.39342643 444.59883848 51.39342643 444.59883848 44.60058594 453.38305664 C38.71626551 459.14646638 31.84839326 462.86451344 24.51293945 466.50463867 C19.0350524 469.24449346 14.13166837 472.44489776 9.18652344 476.05102539 C-17.344266 495.30337608 -17.344266 495.30337608 -28.81347656 493.73852539 C-40.57504624 490.51058671 -50.70934731 483.79774825 -60.39526367 476.63696289 C-66.86509528 471.95041136 -73.73652824 468.31578636 -80.90795898 464.81738281 C-88.76113007 460.92365415 -95.76340108 456.46717975 -99.12597656 447.98852539 C-101.71563378 439.36734239 -101.43625296 430.4545544 -101.37597656 421.55102539 C-101.37331787 420.42142899 -101.37331787 420.42142899 -101.37060547 419.26901245 C-101.34219324 408.99047824 -100.94930513 398.90259036 -99.51660156 388.71118164 C-99.15079164 385.22501306 -99.39676589 382.4340501 -99.87597656 378.98852539 C-99.93484631 375.16199158 -99.31674596 374.19253431 -96.64941406 371.34008789 C-93.68565294 368.84435984 -90.53145934 366.65455514 -87.32177734 364.48901367 C-84.98547805 362.89251651 -82.70904697 361.2304096 -80.43457031 359.54711914 C-73.83082034 354.67629681 -67.3351502 349.93030017 -60.12597656 345.98852539 C-63.77530857 335.55273708 -68.51520122 325.81014738 -73.4987793 315.96166992 C-74.79925845 313.39162366 -76.09134626 310.81750598 -77.38183594 308.24243164 C-82.06369983 298.92311231 -86.85622774 289.66861509 -91.73468018 280.45083618 C-94.64432537 274.94010467 -97.44036988 269.39221164 -100.06347656 263.73852539 C-100.60198242 262.59577148 -100.60198242 262.59577148 -101.15136719 261.42993164 C-103.23800127 256.98099805 -105.18783093 252.5108652 -107.12597656 247.98852539 C-117.35597656 247.65852539 -127.58597656 247.32852539 -138.12597656 246.98852539 C-137.79597656 250.28852539 -137.46597656 253.58852539 -137.12597656 256.98852539 C-137.79264106 269.4460011 -140.92191346 279.37234656 -150.12597656 287.98852539 C-154.48952424 291.50237616 -159.27621019 294.08737538 -164.24511719 296.64501953 C-164.86580078 296.96462646 -165.48648438 297.2842334 -166.12597656 297.61352539 C-166.76212891 297.94022217 -167.39828125 298.26691895 -168.05371094 298.60351562 C-173.23916634 301.34277211 -177.90447605 304.58357262 -182.62597656 308.05102539 C-190.08287873 313.50646365 -197.5796354 317.47315846 -206.12597656 320.98852539 C-206.98707031 321.37782227 -207.84816406 321.76711914 -208.73535156 322.16821289 C-215.82115314 324.59961539 -221.75586787 321.01567499 -228.12597656 317.98852539 C-235.93012596 313.9227642 -243.02233103 308.97384847 -250.18774414 303.9050293 C-255.05499376 300.53723576 -259.8844618 298.23951596 -265.43847656 296.16430664 C-269.92724109 294.20047216 -273.43849132 291.16112563 -277.12597656 287.98852539 C-278.54910156 286.87477539 -278.54910156 286.87477539 -280.00097656 285.73852539 C-280.70222656 285.16102539 -281.40347656 284.58352539 -282.12597656 283.98852539 C-282.609375 283.6030957 -283.09277344 283.21766602 -283.59082031 282.82055664 C-293.67659084 270.7843572 -291.06875595 248.70245656 -289.80957031 234.39282227 C-289.12784139 227.76569948 -288.28682582 221.16634544 -287.39160156 214.56518555 C-287.04165903 211.76854015 -287.04165903 211.76854015 -287.28222656 208.06274414 C-287.07671242 204.01925345 -285.99085741 202.81221785 -283.12597656 199.98852539 C-280.82777356 198.02332137 -278.43927696 196.21337816 -276.00097656 194.42602539 C-275.30230469 193.90935303 -274.60363281 193.39268066 -273.88378906 192.86035156 C-226.32656312 158.01983509 -226.32656312 158.01983509 -210.63769531 160.35961914 C-202.54403099 162.38618206 -195.882698 166.28613467 -188.93432617 170.78662109 C-182.93508403 174.6133779 -176.71170876 177.88150968 -170.37597656 181.11352539 C-145.90051968 193.67243578 -145.90051968 193.67243578 -140.12597656 201.98852539 C-139.14550189 205.86217576 -138.93694382 209.61683557 -138.80957031 213.60180664 C-138.7714624 214.72627197 -138.73335449 215.8507373 -138.6940918 217.00927734 C-138.65098877 218.4255542 -138.60788574 219.84183105 -138.56347656 221.30102539 C-138.34691406 228.07633789 -138.34691406 228.07633789 -138.12597656 234.98852539 C-122.78097656 234.49352539 -122.78097656 234.49352539 -107.12597656 233.98852539 C-106.05347656 231.53415039 -104.98097656 229.07977539 -103.87597656 226.55102539 C-96.84023252 210.65214862 -89.30529501 194.98838168 -81.18847656 179.61352539 C-76.93514304 171.5485425 -72.80431131 163.43020503 -68.81710815 155.23065186 C-67.95828275 153.46670543 -67.09214008 151.70632758 -66.22583008 149.94604492 C-65.70432373 148.86564941 -65.18281738 147.78525391 -64.64550781 146.67211914 C-63.95098511 145.24210571 -63.95098511 145.24210571 -63.24243164 143.78320312 C-62.06790308 140.84315754 -61.53160439 138.12050422 -61.12597656 134.98852539 C-65.8505688 132.06830004 -70.60746267 129.24447362 -75.51660156 126.64477539 C-94.89546298 116.34175798 -94.89546298 116.34175798 -98.21972656 108.36352539 C-101.49853145 97.43417577 -101.52875962 85.91224998 -101.22265625 74.60083008 C-101.14989488 71.88220059 -101.09565789 69.16563224 -101.05273438 66.4465332 C-100.97531814 62.16260482 -100.81272176 57.88693277 -100.60925293 53.60723877 C-100.53782213 51.87965227 -100.48922434 50.15095053 -100.46496582 48.42205811 C-100.22640703 33.78608674 -100.22640703 33.78608674 -95.09741211 28.31542969 C-92.23159441 25.68457543 -89.18477509 23.39516566 -85.95899963 21.22590637 C-83.50327121 19.56816856 -81.15408442 17.78120822 -78.79211426 15.99362183 C-53.80144931 -2.59148504 -28.59104804 -18.9402473 0 0 Z M140.81152344 5.48852539 C135.71685104 10.28138681 130.40082604 14.69656155 124.87402344 18.98852539 C125.53402344 19.31852539 126.19402344 19.64852539 126.87402344 19.98852539 C129.63948974 18.69516267 129.63948974 18.69516267 132.75683594 16.80493164 C133.33110321 16.47057602 133.90537048 16.1362204 134.49703979 15.79173279 C136.33553269 14.71897904 138.16723899 13.63518674 139.99902344 12.55102539 C141.242083 11.82307703 142.48556751 11.09585381 143.72949219 10.36938477 C146.78265037 8.58416211 149.82981758 6.78898096 152.87402344 4.98852539 C152.87402344 4.32852539 152.87402344 3.66852539 152.87402344 2.98852539 C147.20945471 -0.13675391 145.33777346 1.16416566 140.81152344 5.48852539 Z M-29.00488281 3.90258789 C-29.89046875 4.79719727 -30.77605469 5.69180664 -31.68847656 6.61352539 C-32.62433594 7.53133789 -33.56019531 8.44915039 -34.52441406 9.39477539 C-35.8121875 10.67868164 -35.8121875 10.67868164 -37.12597656 11.98852539 C-39.09155128 13.70557917 -41.09860609 15.3447115 -43.12597656 16.98852539 C-42.13597656 17.48352539 -42.13597656 17.48352539 -41.12597656 17.98852539 C-38.65490083 16.89022505 -38.65490083 16.89022505 -35.89941406 15.24243164 C-34.86816406 14.65268555 -33.83691406 14.06293945 -32.77441406 13.45532227 C-31.69417969 12.8269043 -30.61394531 12.19848633 -29.50097656 11.55102539 C-28.41300781 10.92647461 -27.32503906 10.30192383 -26.20410156 9.65844727 C-23.50719423 8.1089084 -20.81481251 6.55201499 -18.12597656 4.98852539 C-18.45597656 4.32852539 -18.78597656 3.66852539 -19.12597656 2.98852539 C-23.37577289 1.78019934 -25.25427144 1.40896568 -29.00488281 3.90258789 Z M-10.31347656 11.98852539 C-10.91160156 12.64852539 -11.50972656 13.30852539 -12.12597656 13.98852539 C-9.21080364 12.91451432 -7.34787481 12.21042364 -5.12597656 9.98852539 C-8.25095823 9.65114079 -8.25095823 9.65114079 -10.31347656 11.98852539 Z M159.51855469 12.39477539 C158.89658203 12.89106445 158.27460938 13.38735352 157.63378906 13.89868164 C156.66989258 14.6856543 156.66989258 14.6856543 155.68652344 15.48852539 C155.03232422 16.01317383 154.378125 16.53782227 153.70410156 17.07836914 C152.08885654 18.37528121 150.48074778 19.68107203 148.87402344 20.98852539 C152.06430875 20.98852539 152.98657687 20.56369461 155.66699219 19.01977539 C156.37919922 18.6137207 157.09140625 18.20766602 157.82519531 17.78930664 C158.56318359 17.36004883 159.30117188 16.93079102 160.06152344 16.48852539 C160.81111328 16.05926758 161.56070312 15.63000977 162.33300781 15.18774414 C164.18330682 14.12706318 166.02910407 13.05853616 167.87402344 11.98852539 C167.21402344 11.32852539 166.55402344 10.66852539 165.87402344 9.98852539 C162.49673191 9.98852539 162.03563462 10.36263746 159.51855469 12.39477539 Z M-14.12597656 13.98852539 C-14.45597656 14.64852539 -14.78597656 15.30852539 -15.12597656 15.98852539 C-14.13597656 15.65852539 -13.14597656 15.32852539 -12.12597656 14.98852539 C-12.78597656 14.65852539 -13.44597656 14.32852539 -14.12597656 13.98852539 Z M2.95117188 16.9765625 C2.30180664 17.48453369 1.65244141 17.99250488 0.98339844 18.51586914 C0.27441406 19.06049805 -0.43457031 19.60512695 -1.16503906 20.16625977 C-1.89464844 20.74698242 -2.62425781 21.32770508 -3.37597656 21.92602539 C-4.12105469 22.50288086 -4.86613281 23.07973633 -5.63378906 23.67407227 C-7.47364555 25.10114044 -9.30351235 26.53935605 -11.12597656 27.98852539 C-10.13597656 28.48352539 -10.13597656 28.48352539 -9.12597656 28.98852539 C-7.25745407 28.21673839 -7.25745407 28.21673839 -5.24707031 26.96899414 C-4.49103516 26.52362305 -3.735 26.07825195 -2.95605469 25.61938477 C-2.16650391 25.14307617 -1.37695312 24.66676758 -0.56347656 24.17602539 C0.22994141 23.71131836 1.02335937 23.24661133 1.84082031 22.76782227 C6.03203111 20.54540665 6.03203111 20.54540665 8.87402344 16.98852539 C6.39593017 16.06044571 5.35601164 15.74086081 2.95117188 16.9765625 Z M175.62573242 17.9831543 C174.88137939 18.55469238 174.13702637 19.12623047 173.37011719 19.71508789 C172.54705078 20.33512695 171.72398437 20.95516602 170.87597656 21.59399414 C170.02970703 22.26043945 169.1834375 22.92688477 168.31152344 23.61352539 C167.03631836 24.57838867 167.03631836 24.57838867 165.73535156 25.56274414 C161.86847009 28.5167383 158.26684154 31.49161546 154.87402344 34.98852539 C160.2552678 33.47051985 164.68005676 30.96325128 169.43652344 28.11352539 C170.17837891 27.67911133 170.92023438 27.24469727 171.68457031 26.79711914 C175.66010945 24.43940849 179.3431935 21.99497464 182.87402344 18.98852539 C179.34610625 17.04985547 179.34610625 17.04985547 175.62573242 17.9831543 Z M9.37402344 30.30102539 C7.78356141 31.59643617 6.19108846 32.88938167 4.59667969 34.17993164 C3.80664551 34.82462402 3.01661133 35.46931641 2.20263672 36.13354492 C-1.72581157 39.26295886 -5.83693231 42.12119551 -9.97363281 44.96630859 C-13.04521691 47.01838445 -13.04521691 47.01838445 -15.12597656 49.98852539 C-11.39793307 48.58452855 -7.99235223 46.89184251 -4.52050781 44.94165039 C-3.45380859 44.34352539 -2.38710938 43.74540039 -1.28808594 43.12915039 C-0.18271484 42.50524414 0.92265625 41.88133789 2.06152344 41.23852539 C3.14755859 40.63008789 4.23359375 40.02165039 5.35253906 39.39477539 C11.92617813 35.69932424 18.432817 31.91028312 24.87402344 27.98852539 C24.37902344 26.50352539 24.37902344 26.50352539 23.87402344 24.98852539 C17.29541727 22.60482157 14.18114356 26.23635141 9.37402344 30.30102539 Z M-78.75097656 30.98852539 C-79.86472656 31.64852539 -80.97847656 32.30852539 -82.12597656 32.98852539 C-81.79597656 33.64852539 -81.46597656 34.30852539 -81.12597656 34.98852539 C-77.21194707 33.71911042 -75.33524783 32.47684845 -73.12597656 28.98852539 C-75.58899079 28.98852539 -76.64660935 29.74149297 -78.75097656 30.98852539 Z M-13.12597656 28.98852539 C-13.45597656 29.64852539 -13.78597656 30.30852539 -14.12597656 30.98852539 C-13.13597656 30.65852539 -12.14597656 30.32852539 -11.12597656 29.98852539 C-11.78597656 29.65852539 -12.44597656 29.32852539 -13.12597656 28.98852539 Z M92.24902344 30.98852539 C91.13527344 31.64852539 90.02152344 32.30852539 88.87402344 32.98852539 C88.87402344 33.64852539 88.87402344 34.30852539 88.87402344 34.98852539 C92.54823209 34.68234134 93.65537856 34.23080755 96.18652344 31.42602539 C96.74339844 30.62165039 97.30027344 29.81727539 97.87402344 28.98852539 C95.41100921 28.98852539 94.35339065 29.74149297 92.24902344 30.98852539 Z M195.18652344 35.98852539 C193.69572266 37.10227539 193.69572266 37.10227539 192.17480469 38.23852539 C191.03591797 39.10477539 191.03591797 39.10477539 189.87402344 39.98852539 C190.86402344 40.48352539 190.86402344 40.48352539 191.87402344 40.98852539 C194.82036638 39.61219538 194.82036638 39.61219538 197.99902344 37.67602539 C199.09472656 37.04051758 200.19042969 36.40500977 201.31933594 35.75024414 C202.58390625 34.87819336 202.58390625 34.87819336 203.87402344 33.98852539 C203.87402344 33.32852539 203.87402344 32.66852539 203.87402344 31.98852539 C199.84021321 31.98852539 198.37968707 33.58426101 195.18652344 35.98852539 Z M187.87402344 40.98852539 C187.54402344 41.64852539 187.21402344 42.30852539 186.87402344 42.98852539 C187.86402344 42.65852539 188.85402344 42.32852539 189.87402344 41.98852539 C189.21402344 41.65852539 188.55402344 41.32852539 187.87402344 40.98852539 Z M81.87402344 71.98852539 C81.87402344 72.97852539 81.87402344 73.96852539 81.87402344 74.98852539 C82.53402344 73.99852539 83.19402344 73.00852539 83.87402344 71.98852539 C83.21402344 71.98852539 82.55402344 71.98852539 81.87402344 71.98852539 Z M-57.12597656 123.98852539 C-56.79597656 124.64852539 -56.46597656 125.30852539 -56.12597656 125.98852539 C-55.79597656 125.32852539 -55.46597656 124.66852539 -55.12597656 123.98852539 C-55.78597656 123.98852539 -56.44597656 123.98852539 -57.12597656 123.98852539 Z M-215.81347656 173.98852539 C-216.74740234 174.82383789 -216.74740234 174.82383789 -217.70019531 175.67602539 C-218.17070312 176.10915039 -218.64121094 176.54227539 -219.12597656 176.98852539 C-218.13597656 177.48352539 -218.13597656 177.48352539 -217.12597656 177.98852539 C-214.87273497 176.99435532 -214.87273497 176.99435532 -212.50097656 175.55102539 C-211.27507812 174.84139648 -211.27507812 174.84139648 -210.02441406 174.11743164 C-209.39792969 173.74489258 -208.77144531 173.37235352 -208.12597656 172.98852539 C-208.45597656 172.32852539 -208.78597656 171.66852539 -209.12597656 170.98852539 C-212.71510069 170.98852539 -213.23454685 171.65289093 -215.81347656 173.98852539 Z M-198.12597656 177.98852539 C-198.56876953 178.35091309 -199.0115625 178.71330078 -199.46777344 179.08666992 C-201.5191518 180.76395457 -203.57255203 182.43874652 -205.62597656 184.11352539 C-206.32207031 184.68329102 -207.01816406 185.25305664 -207.73535156 185.84008789 C-212.44553385 189.6780142 -217.23708405 193.38107543 -222.12597656 196.98852539 C-221.46597656 197.31852539 -220.80597656 197.64852539 -220.12597656 197.98852539 C-217.39357322 196.72854154 -217.39357322 196.72854154 -214.31347656 194.87524414 C-213.74395264 194.54563187 -213.17442871 194.21601959 -212.58764648 193.87641907 C-211.38174965 193.17643842 -210.17810813 192.47256034 -208.9765625 191.76513672 C-207.13805199 190.68313205 -205.29295246 189.61318423 -203.44628906 188.54516602 C-197.43496197 185.24218146 -197.43496197 185.24218146 -192.12597656 180.98852539 C-194.10597656 179.99852539 -196.08597656 179.00852539 -198.12597656 177.98852539 Z M-165.48925781 201.22680664 C-166.1221875 201.71246094 -166.75511719 202.19811523 -167.40722656 202.69848633 C-168.07753906 203.22732422 -168.74785156 203.75616211 -169.43847656 204.30102539 C-170.86098907 205.39694064 -172.28418406 206.49197051 -173.70800781 207.58618164 C-174.43455566 208.14837402 -175.16110352 208.71056641 -175.90966797 209.28979492 C-179.4403892 211.99598112 -183.03159372 214.61782952 -186.62597656 217.23852539 C-187.8864015 218.16038908 -189.14681897 219.08226299 -190.40722656 220.00415039 C-191.30441406 220.65899414 -192.20160156 221.31383789 -193.12597656 221.98852539 C-189.45287778 221.98852539 -187.87169 220.93273952 -184.68066406 219.13696289 C-183.60300781 218.53239258 -182.52535156 217.92782227 -181.41503906 217.30493164 C-180.28839844 216.66426758 -179.16175781 216.02360352 -178.00097656 215.36352539 C-176.89753906 214.74606445 -175.79410156 214.12860352 -174.65722656 213.49243164 C-168.29765107 209.90478514 -162.12345684 206.15489091 -156.12597656 201.98852539 C-156.78597656 200.99852539 -157.44597656 200.00852539 -158.12597656 198.98852539 C-162.37602289 198.97359741 -162.37602289 198.97359741 -165.48925781 201.22680664 Z M-270.12597656 260.98852539 C-271.92138167 261.75354094 -271.92138167 261.75354094 -273.75097656 262.92602539 C-274.86472656 263.60665039 -275.97847656 264.28727539 -277.12597656 264.98852539 C-276.79597656 266.30852539 -276.46597656 267.62852539 -276.12597656 268.98852539 C-273.48597656 266.67852539 -270.84597656 264.36852539 -268.12597656 261.98852539 C-268.78597656 261.65852539 -269.44597656 261.32852539 -270.12597656 260.98852539 Z M-235.25097656 296.48852539 C-235.97542969 296.95258789 -236.69988281 297.41665039 -237.44628906 297.89477539 C-238.00058594 298.25571289 -238.55488281 298.61665039 -239.12597656 298.98852539 C-237.14597656 299.97852539 -237.14597656 299.97852539 -235.12597656 300.98852539 C-231.70018708 297.81312983 -231.70018708 297.81312983 -229.12597656 293.98852539 C-231.80147949 293.98852539 -233.01642298 295.04687792 -235.25097656 296.48852539 Z M-29.75097656 346.48852539 C-30.56824219 347.13821289 -31.38550781 347.78790039 -32.22753906 348.45727539 C-32.85402344 348.96258789 -33.48050781 349.46790039 -34.12597656 349.98852539 C-30.68237025 349.98852539 -29.37802264 349.19261007 -26.43847656 347.48852539 C-25.63023437 347.02446289 -24.82199219 346.56040039 -23.98925781 346.08227539 C-23.374375 345.72133789 -22.75949219 345.36040039 -22.12597656 344.98852539 C-22.45597656 344.32852539 -22.78597656 343.66852539 -23.12597656 342.98852539 C-26.12083894 342.98852539 -27.44624589 344.64474085 -29.75097656 346.48852539 Z M-18.12597656 355.11352539 C-18.72925781 355.60079102 -19.33253906 356.08805664 -19.95410156 356.59008789 C-23.55775605 359.53568373 -26.89137314 362.6436514 -30.12597656 365.98852539 C-25.10890634 364.18360379 -20.53465132 361.61329651 -15.87597656 359.05102539 C-14.63460938 358.38683594 -14.63460938 358.38683594 -13.36816406 357.70922852 C-12.18867188 357.06050781 -12.18867188 357.06050781 -10.98535156 356.39868164 C-10.26831055 356.00817627 -9.55126953 355.6176709 -8.8125 355.21533203 C-6.80968141 354.00824184 -6.80968141 354.00824184 -6.12597656 350.98852539 C-11.44077852 348.8746837 -14.1962442 351.78836724 -18.12597656 355.11352539 Z M-32.12597656 365.98852539 C-32.45597656 366.64852539 -32.78597656 367.30852539 -33.12597656 367.98852539 C-32.13597656 367.65852539 -31.14597656 367.32852539 -30.12597656 366.98852539 C-30.78597656 366.65852539 -31.44597656 366.32852539 -32.12597656 365.98852539 Z M21.33886719 371.98071289 C20.44748047 372.60333008 19.55609375 373.22594727 18.63769531 373.86743164 C17.23874023 374.85549805 17.23874023 374.85549805 15.81152344 375.86352539 C14.87501953 376.51450195 13.93851562 377.16547852 12.97363281 377.83618164 C8.24797801 380.79113927 8.24797801 380.79113927 4.87402344 384.98852539 C8.27604777 383.69928183 11.37966898 382.22331779 14.51855469 380.38696289 C15.35966797 379.89711914 16.20078125 379.40727539 17.06738281 378.90258789 C17.93169922 378.39469727 18.79601562 377.88680664 19.68652344 377.36352539 C21.01200195 376.59008789 21.01200195 376.59008789 22.36425781 375.80102539 C24.53597133 374.53321426 26.70580524 373.26230191 28.87402344 371.98852539 C28.54402344 370.99852539 28.21402344 370.00852539 27.87402344 368.98852539 C25.00078061 368.98852539 23.68314473 370.34241001 21.33886719 371.98071289 Z M-80.12597656 388.98852539 C-80.12597656 389.97852539 -80.12597656 390.96852539 -80.12597656 391.98852539 C-79.46597656 391.32852539 -78.80597656 390.66852539 -78.12597656 389.98852539 C-78.78597656 389.65852539 -79.44597656 389.32852539 -80.12597656 388.98852539 Z M-75.25097656 453.98852539 C-75.86972656 454.64852539 -76.48847656 455.30852539 -77.12597656 455.98852539 C-76.13597656 455.98852539 -75.14597656 455.98852539 -74.12597656 455.98852539 C-72.42065333 454.04843017 -72.42065333 454.04843017 -71.12597656 451.98852539 C-73.3696023 451.76007049 -73.3696023 451.76007049 -75.25097656 453.98852539 Z M-63.12597656 461.98852539 C-63.45597656 462.64852539 -63.78597656 463.30852539 -64.12597656 463.98852539 C-63.13597656 463.65852539 -62.14597656 463.32852539 -61.12597656 462.98852539 C-61.78597656 462.65852539 -62.44597656 462.32852539 -63.12597656 461.98852539 Z " fill="#252628" transform="translate(290.1259765625,15.011474609375)"/>
<path d="M0 0 C-2 2 -4 4 -6 6 C-5.12988281 5.44119141 -5.12988281 5.44119141 -4.2421875 4.87109375 C2.14986376 1 2.14986376 1 6.1875 1 C9.28024671 2.09964328 12.12187316 3.42388292 15 5 C13.46333594 9.32877262 10.13249242 11.46011208 6.5625 14.0625 C1.55719182 17.76770937 1.55719182 17.76770937 -3 22 C-2.36497559 21.60095459 -1.72995117 21.20190918 -1.07568359 20.79077148 C1.81393299 18.98864785 4.71895973 17.21300632 7.625 15.4375 C8.62402344 14.80908203 9.62304688 14.18066406 10.65234375 13.53320312 C11.62558594 12.94345703 12.59882813 12.35371094 13.6015625 11.74609375 C14.49182129 11.19622803 15.38208008 10.6463623 16.29931641 10.07983398 C20.58587648 8.36590746 23.58988387 9.40494563 27.72900391 11.15161133 C28.63569824 11.6236499 29.54239258 12.09568848 30.4765625 12.58203125 C31.476875 13.10216797 32.4771875 13.62230469 33.5078125 14.15820312 C34.53648437 14.70412109 35.56515625 15.25003906 36.625 15.8125 C38.17960937 16.61397461 38.17960937 16.61397461 39.765625 17.43164062 C44.48258742 19.90896003 48.35479052 22.05128882 52 26 C51.4652002 26.38333496 50.93040039 26.76666992 50.37939453 27.16162109 C47.95988601 28.89750408 45.54242405 30.63621548 43.125 32.375 C42.28324219 32.97828125 41.44148438 33.5815625 40.57421875 34.203125 C39.36572266 35.07324219 39.36572266 35.07324219 38.1328125 35.9609375 C37.38918457 36.49509277 36.64555664 37.02924805 35.87939453 37.57958984 C33.90155354 39.00660108 33.90155354 39.00660108 32 41 C32.96039185 40.39357666 32.96039185 40.39357666 33.94018555 39.77490234 C36.84447708 37.95580874 39.76539118 36.16531903 42.6875 34.375 C43.69490234 33.73820312 44.70230469 33.10140625 45.74023438 32.4453125 C46.71669922 31.85234375 47.69316406 31.259375 48.69921875 30.6484375 C50.04246216 29.81578369 50.04246216 29.81578369 51.4128418 28.96630859 C54 28 54 28 56.83129883 28.83447266 C57.54697021 29.21909668 58.2626416 29.6037207 59 30 C59 30.99 59 31.98 59 33 C58.23300781 33.41507812 57.46601563 33.83015625 56.67578125 34.2578125 C49.09975796 38.46378129 41.8658702 43.02044954 34.6875 47.875 C28.05980061 52.35024141 21.39475722 56.69586758 14.5 60.75 C13.46879028 61.35884033 13.46879028 61.35884033 12.41674805 61.97998047 C5.87979328 65.76992316 1.58864203 67.91570248 -6 66 C-8.56203552 64.8616314 -10.80219708 63.7353562 -13.1875 62.3125 C-13.85241455 61.92819824 -14.5173291 61.54389648 -15.20239258 61.14794922 C-23.96678031 55.98584376 -32.36300187 50.21790013 -40.75854492 44.48291016 C-45.38727454 41.42061806 -50.21290532 38.78585661 -55.109375 36.18359375 C-57 35 -57 35 -58 33 C-60.02463255 32.34786708 -60.02463255 32.34786708 -62 32 C-55.44535539 24.83085746 -46.89819537 20.76175326 -38.375 16.3125 C-37.00214844 15.58450195 -37.00214844 15.58450195 -35.6015625 14.84179688 C-31.88865636 12.89681353 -28.41614842 11.13282297 -24.4140625 9.85546875 C-23.61742187 9.57316406 -22.82078125 9.29085938 -22 9 C-21.67 8.01 -21.34 7.02 -21 6 C-14.32507405 1.02106249 -8.24811184 -0.96615627 0 0 Z M-7 23 C-7.33 23.66 -7.66 24.32 -8 25 C-7.01 24.67 -6.02 24.34 -5 24 C-5.66 23.67 -6.32 23.34 -7 23 Z " fill="#345FD6" transform="translate(265,358)"/>
<path d="M0 0 C-1.92576115 2.43929746 -3.80090595 4.80090595 -6 7 C-5.40832031 6.61585938 -4.81664062 6.23171875 -4.20703125 5.8359375 C2.29138577 1.87116105 2.29138577 1.87116105 5.75 2.5 C6.4925 2.995 7.235 3.49 8 4 C8.928125 4.53625 9.85625 5.0725 10.8125 5.625 C11.534375 6.07875 12.25625 6.5325 13 7 C11.62657834 11.12026499 8.72434319 12.79189573 5.375 15.3125 C0.44924667 19.06720536 -4.33709356 22.9215231 -9 27 C-8.23856689 26.55084229 -7.47713379 26.10168457 -6.69262695 25.63891602 C-3.85380614 23.96893236 -1.01136575 22.30547547 1.83374023 20.64624023 C3.06213107 19.92810156 4.28904288 19.20742651 5.5144043 18.48413086 C7.28046955 17.44227426 9.05173018 16.40978772 10.82421875 15.37890625 C11.88729248 14.7557251 12.95036621 14.13254395 14.0456543 13.49047852 C16.80726071 12.0972377 18.93947579 11.32620839 22 11 C24.23828125 11.77734375 24.23828125 11.77734375 26.3125 12.9375 C27.00988281 13.31777344 27.70726563 13.69804687 28.42578125 14.08984375 C28.94527344 14.39019531 29.46476562 14.69054687 30 15 C30 15.66 30 16.32 30 17 C30.87398438 17.10570312 31.74796875 17.21140625 32.6484375 17.3203125 C36.1363311 18.02764757 38.54031962 19.12846266 41.625 20.875 C42.54539062 21.38804687 43.46578125 21.90109375 44.4140625 22.4296875 C46.7452971 23.84533147 48.93094026 25.22235713 51 27 C51 27.66 51 28.32 51 29 C49.07473152 30.52597646 47.14826577 31.9259759 45.125 33.3125 C43.85364371 34.20107515 42.58283928 35.09044026 41.3125 35.98046875 C40.27996094 36.70049072 40.27996094 36.70049072 39.2265625 37.43505859 C35.16338 40.29086998 31.14698419 43.21160372 27.125 46.125 C25.56516831 47.25269289 24.0052778 48.38030444 22.4453125 49.5078125 C21.29683664 50.33848864 20.14838346 51.16919613 19 52 C21.08770299 50.92451664 23.17059015 49.8413681 25.25 48.75 C25.90589111 48.40590088 26.56178223 48.06180176 27.23754883 47.70727539 C31.34464566 45.51710886 35.34689146 43.20580747 39.30859375 40.76171875 C40.20094727 40.21225586 41.09330078 39.66279297 42.01269531 39.09667969 C43.78053014 38.00009284 45.54178443 36.89281771 47.29589844 35.77441406 C48.10961914 35.27006836 48.92333984 34.76572266 49.76171875 34.24609375 C50.48319092 33.78904053 51.20466309 33.3319873 51.94799805 32.86108398 C54 32 54 32 56.20239258 32.23461914 C58 33 58 33 59 35 C58.08863281 35.48726562 57.17726563 35.97453125 56.23828125 36.4765625 C48.04375639 40.93534809 40.22064591 45.76172047 32.5 51 C4.90314559 69.64158377 4.90314559 69.64158377 -3 69 C-6.96334359 67.83211819 -10.39910816 66.0046686 -14 64 C-15.06089844 63.43925781 -16.12179688 62.87851563 -17.21484375 62.30078125 C-24.70778056 58.20670237 -31.59369689 53.52580601 -38.50415039 48.52026367 C-45.66787651 43.39281057 -53.23419377 39.13897613 -61 35 C-57.4766096 26.82191571 -47.79308413 23.09773177 -40.3125 19.1875 C-33.86340692 15.75598057 -27.60735244 12.28914182 -21.6875 8 C-14.68756834 2.97136591 -8.79383132 -0.74841118 0 0 Z " fill="#345FD6" transform="translate(79,185)"/>
<path d="M0 0 C-3.82241371 5.1404874 -8.36326199 8.88635136 -13.37890625 12.8515625 C-15.7441333 14.7902732 -17.85771468 16.82324898 -20 19 C-19.23856689 18.54036865 -18.47713379 18.0807373 -17.69262695 17.60717773 C-14.85724204 15.90508267 -12.01468225 14.21648784 -9.16625977 12.53637695 C-7.93624753 11.80724682 -6.70930713 11.07290808 -5.4855957 10.33325195 C-3.72352929 9.26943029 -1.95117624 8.2249796 -0.17578125 7.18359375 C0.88729248 6.54993896 1.95036621 5.91628418 3.0456543 5.26342773 C6.36982083 3.8418459 7.64134328 3.80201905 11 5 C13.04049422 6.2704964 15.05017465 7.59431196 17 9 C12.73412126 13.54109672 7.96387672 17.24735246 3 21 C5.48034449 19.68968564 7.9593035 18.37686532 10.4375 17.0625 C11.14455078 16.68931641 11.85160156 16.31613281 12.58007812 15.93164062 C16.00478658 14.27507665 16.00478658 14.27507665 19 12 C23.98287932 12.39081406 27.65022018 13.55987961 32 16 C27.70809911 20.64154658 22.83516041 24.16810269 17.6875 27.8125 C16.85154297 28.40998047 16.01558594 29.00746094 15.15429688 29.62304688 C13.10581432 31.0862487 11.05436616 32.54507639 9 34 C13.894876 31.67584774 18.64694026 29.25716714 23.23828125 26.37109375 C23.98150635 25.91009277 24.72473145 25.4490918 25.49047852 24.97412109 C26.98217134 24.04219588 28.46353868 23.09350969 29.93334961 22.12744141 C35.18469382 18.86999444 35.18469382 18.86999444 39.16015625 19.50390625 C42.07836074 21.04128221 44.90692485 22.5988446 47.6875 24.375 C48.61949219 24.96023437 49.55148437 25.54546875 50.51171875 26.1484375 C52.89340073 27.92067809 54.37759255 29.53654521 56 32 C54.9171875 32.68707031 53.834375 33.37414063 52.71875 34.08203125 C51.31214365 34.99163669 49.90591288 35.9018231 48.5 36.8125 C47.78457031 37.26431641 47.06914062 37.71613281 46.33203125 38.18164062 C45.31689453 38.84389648 45.31689453 38.84389648 44.28125 39.51953125 C43.33862305 40.12438354 43.33862305 40.12438354 42.37695312 40.74145508 C41.69536133 41.36443481 41.69536133 41.36443481 41 42 C41 42.99 41 43.98 41 45 C39.40209961 46.40698242 39.40209961 46.40698242 37.15234375 47.85546875 C36.32613525 48.39196045 35.49992676 48.92845215 34.64868164 49.48120117 C33.7539917 50.04427979 32.85930176 50.6073584 31.9375 51.1875 C30.58096313 52.05435425 30.58096313 52.05435425 29.19702148 52.9387207 C21.670993 57.69469265 14.01234648 62.11120509 6 66 C5.16339844 66.41894531 4.32679688 66.83789062 3.46484375 67.26953125 C-3.33830198 69.28567745 -9.85124253 65.06446525 -15.74609375 61.9921875 C-27.60888674 55.45491486 -38.75960821 47.53623233 -50 40 C-51.99922056 38.66549294 -53.99953531 37.33264208 -56 36 C-53.525 33.525 -53.525 33.525 -51 31 C-53.89263906 31.87209412 -53.89263906 31.87209412 -56 33.0625 C-58 34 -58 34 -61 34 C-57.25461486 25.03436303 -45.36024008 21.02676505 -37.18847656 16.84667969 C-32.14842363 14.23427543 -27.42392149 11.43447063 -22.8125 8.125 C-14.97194118 2.52460084 -9.82508585 -0.81875715 0 0 Z " fill="#345FD6" transform="translate(437,15)"/>
<path d="M0 0 C1.8871875 0.0309375 1.8871875 0.0309375 3.8125 0.0625 C-0.66187874 6.07976797 -6.32416379 10.4416571 -12.1875 15.0625 C-11.54425781 14.71058594 -10.90101563 14.35867187 -10.23828125 13.99609375 C-8.32092314 12.94852149 -6.40004054 11.90738618 -4.4765625 10.87109375 C-2.22074783 9.63066359 0.01305009 8.34958753 2.2265625 7.03515625 C3.34804688 6.38417969 4.46953125 5.73320312 5.625 5.0625 C6.66269531 4.44375 7.70039063 3.825 8.76953125 3.1875 C11.8125 2.0625 11.8125 2.0625 15.01953125 2.7734375 C17.75477144 4.03585605 20.28407032 5.42645727 22.8125 7.0625 C21.8225 8.3825 20.8325 9.7025 19.8125 11.0625 C20.8025 10.4025 21.7925 9.7425 22.8125 9.0625 C27.8093678 9.34534157 31.46672069 10.6246238 35.8125 13.0625 C31.1251338 18.23476615 25.49521819 22.05175493 19.8125 26.0625 C21.50050555 25.14676462 23.18787641 24.22985926 24.875 23.3125 C25.88046875 22.76980469 26.8859375 22.22710937 27.921875 21.66796875 C30.22147746 20.39075711 32.41413475 19.04413648 34.625 17.625 C38.40781804 15.77067743 39.84373103 15.79587161 43.8125 17.0625 C45.84165769 18.00192486 47.85125312 18.98848385 49.8125 20.0625 C49.8125 20.7225 49.8125 21.3825 49.8125 22.0625 C48.30639648 23.40014648 48.30639648 23.40014648 46.18359375 24.93359375 C45.40218018 25.50319824 44.6207666 26.07280273 43.81567383 26.65966797 C42.96900146 27.26697754 42.1223291 27.87428711 41.25 28.5 C39.96935669 29.43030029 39.96935669 29.43030029 38.6628418 30.37939453 C36.90624087 31.65528797 35.14784034 32.92870728 33.38769531 34.19970703 C29.61891753 36.92588967 25.87242215 39.68208317 22.125 42.4375 C20.0213434 43.9798641 17.91690499 45.52115703 15.8125 47.0625 C23.48069627 42.90834457 31.09870474 38.6723296 38.6875 34.375 C39.69296875 33.80716797 40.6984375 33.23933594 41.734375 32.65429688 C47.16828282 29.59439224 47.16828282 29.59439224 52.50830078 26.37573242 C54.8125 25.0625 54.8125 25.0625 56.8125 25.125 C59.49880914 26.38420741 61.57295038 28.13399894 63.8125 30.0625 C62.67446097 33.4766171 62.23833941 33.69354779 59.26953125 35.41015625 C58.5326709 35.84537598 57.79581055 36.2805957 57.03662109 36.72900391 C56.24078613 37.18968262 55.44495117 37.65036133 54.625 38.125 C48.78474182 41.58627794 43.1379142 45.13944277 37.6875 49.1875 C32.77996624 52.79663439 27.74138358 56.00183076 22.4375 59 C21.79538574 59.36561035 21.15327148 59.7312207 20.49169922 60.10791016 C9.55579751 66.15076569 9.55579751 66.15076569 3.77734375 65.96484375 C0.12242766 64.85247798 -3.23336008 63.35858832 -6.625 61.625 C-7.32165771 61.27228027 -8.01831543 60.91956055 -8.73608398 60.55615234 C-15.59883784 56.99344011 -21.94021834 52.77861331 -28.28466797 48.37548828 C-31.60147816 46.08682967 -34.95858072 43.85874573 -38.3125 41.625 C-38.92810791 41.2120166 -39.54371582 40.7990332 -40.17797852 40.37353516 C-43.46326545 38.17608256 -46.77850408 36.06287308 -50.1875 34.0625 C-48.5375 32.4125 -46.8875 30.7625 -45.1875 29.0625 C-48.08595946 29.91593243 -48.08595946 29.91593243 -50.125 31.1875 C-52.60377302 32.23910068 -53.69962261 31.95102764 -56.1875 31.0625 C-52.12389305 26.46034273 -47.7751344 24.02442291 -42.3125 21.3125 C-33.697604 16.9119247 -25.42147722 12.13254003 -17.1875 7.0625 C-15.27282954 5.89256015 -13.35640886 4.72547507 -11.4375 3.5625 C-10.67953125 3.0984375 -9.9215625 2.634375 -9.140625 2.15625 C-6.01775459 0.40744257 -3.51220894 -0.0575772 0 0 Z M15.8125 12.0625 C15.4825 12.7225 15.1525 13.3825 14.8125 14.0625 C15.8025 13.7325 16.7925 13.4025 17.8125 13.0625 C17.1525 12.7325 16.4925 12.4025 15.8125 12.0625 Z M16.8125 27.0625 C16.4825 27.7225 16.1525 28.3825 15.8125 29.0625 C16.8025 28.7325 17.7925 28.4025 18.8125 28.0625 C18.1525 27.7325 17.4925 27.4025 16.8125 27.0625 Z " fill="#345FD6" transform="translate(260.1875,16.9375)"/>
<path d="M0 0 C4.484542 1.3789035 7.46309903 2.87920503 11 6 C10.67 6.66 10.34 7.32 10 8 C10.58160889 7.79391113 11.16321777 7.58782227 11.76245117 7.37548828 C14.58835857 6.90126618 15.4183752 7.46491923 17.80078125 8.9921875 C18.52297852 9.44561523 19.24517578 9.89904297 19.98925781 10.36621094 C21.1392627 11.11306152 21.1392627 11.11306152 22.3125 11.875 C23.93851913 12.89888699 25.56482551 13.92231794 27.19140625 14.9453125 C28.40787842 15.7192334 28.40787842 15.7192334 29.64892578 16.50878906 C32.99210912 18.62926298 36.36368546 20.69931983 39.75 22.75 C40.81734375 23.40484375 41.8846875 24.0596875 42.984375 24.734375 C48.86575169 28.05266146 54.96002538 30.98001269 61 34 C61 54.79 61 75.58 61 97 C54.33812038 94.77937346 48.12376824 91.98844929 41.75 89.0625 C40.55375 88.52431641 39.3575 87.98613281 38.125 87.43164062 C36.98546875 86.90892578 35.8459375 86.38621094 34.671875 85.84765625 C33.6312793 85.37336182 32.59068359 84.89906738 31.51855469 84.41040039 C29 83 29 83 27 80 C26.0925 79.855625 25.185 79.71125 24.25 79.5625 C20.37543559 78.89190231 18.13363793 77.31292323 15 75 C15.66 73.68 16.32 72.36 17 71 C15.515 71.495 15.515 71.495 14 72 C11.22314441 72 9.59533765 71.51555013 7.484375 69.6875 C-1.08694586 60.33696815 -2.19693155 49.80467315 -2.1875 37.625 C-2.18814453 36.74175049 -2.18878906 35.85850098 -2.18945312 34.94848633 C-2.10067195 23.26468189 -1.03988957 11.63099894 0 0 Z " fill="#2750AE" transform="translate(200,398)"/>
<path d="M0 0 C0.35777456 9.66847679 0.67166659 19.33741213 0.94281006 29.00866699 C0.99569082 30.84995598 1.0535336 32.69110065 1.11181641 34.53222656 C1.8853536 60.73728642 1.8853536 60.73728642 -4.34960938 67.45385742 C-9.11928233 71.86664959 -14.532141 74.45998309 -20.375 77.1875 C-28.46291421 81.07955074 -36.05154532 85.30928595 -43.45654297 90.38354492 C-48.74234712 93.98358062 -53.41409271 97 -60 97 C-60 75.88 -60 54.76 -60 33 C-54.39 30.36 -48.78 27.72 -43 25 C-38.88078696 22.58242026 -34.87078994 20.15918278 -30.875 17.5625 C-28.82876844 16.25810466 -26.78189355 14.95471796 -24.734375 13.65234375 C-23.76048828 13.02956543 -22.78660156 12.40678711 -21.78320312 11.76513672 C-17.9334088 9.32355663 -14.03990062 6.96036663 -10.125 4.625 C-9.51897949 4.26220947 -8.91295898 3.89941895 -8.28857422 3.52563477 C-2.37151038 0 -2.37151038 0 0 0 Z " fill="#1A4187" transform="translate(328,399)"/>
<path d="M0 0 C-0.2784375 1.2065625 -0.2784375 1.2065625 -0.5625 2.4375 C-0.706875 3.283125 -0.85125 4.12875 -1 5 C-0.505 5.495 -0.505 5.495 0 6 C0.07294878 8.1446942 0.08365276 10.29166979 0.0625 12.4375 C0.05347656 13.61183594 0.04445313 14.78617188 0.03515625 15.99609375 C0.02355469 16.98738281 0.01195312 17.97867188 0 19 C0 21.37695374 0.05503632 23.75189133 0.1026001 26.12828064 C0.15613116 29.10971579 0.18872807 32.09125275 0.21972656 35.07299805 C0.23970398 36.63333111 0.26689588 38.19359064 0.30175781 39.75366211 C0.74607475 60.19441921 0.74607475 60.19441921 -5.62841797 67.99194336 C-10.90898493 73.01938883 -17.44018538 76.19824119 -23.875 79.5 C-30.8591934 83.11069621 -37.44528178 86.84621596 -43.82519531 91.45166016 C-46.43371552 93.3087813 -49.12307973 94.91250576 -51.9375 96.4375 C-53.28134766 97.17806641 -53.28134766 97.17806641 -54.65234375 97.93359375 C-57 99 -57 99 -60 99 C-60 77.55 -60 56.1 -60 34 C-54.39 31.03 -48.78 28.06 -43 25 C-38.58950874 22.37290326 -34.21994809 19.7284115 -29.875 17 C-27.64353008 15.61409871 -25.41176063 14.22867958 -23.1796875 12.84375 C-22.12362305 12.18632813 -21.06755859 11.52890625 -19.97949219 10.8515625 C-15.99983955 8.3784647 -12.00803669 5.92679214 -8 3.5 C-7.40171387 3.13261719 -6.80342773 2.76523437 -6.18701172 2.38671875 C-2.23252303 0 -2.23252303 0 0 0 Z " fill="#1A4187" transform="translate(499,57)"/>
<path d="M0 0 C9.87105788 3.6742271 18.84410174 9.8243217 27.625 15.5625 C37.84009122 22.23509537 47.83997581 27.92726173 59 33 C59 54.12 59 75.24 59 97 C54.22893494 95.40964498 50.47494079 93.77190615 46.125 91.375 C44.39636719 90.42753906 44.39636719 90.42753906 42.6328125 89.4609375 C41.76398437 88.97882813 40.89515625 88.49671875 40 88 C41.375 86 41.375 86 43 84 C43.66 84 44.32 84 45 84 C45 83.01 45 82.02 45 81 C43.989375 81.680625 42.97875 82.36125 41.9375 83.0625 C39.31803232 84.8266313 38.02385653 85.00072911 34.8046875 84.90234375 C30.09810968 83.78610199 26.36800671 81.88449296 22.1875 79.5 C21.39649902 79.05293701 20.60549805 78.60587402 19.79052734 78.14526367 C11.25041429 73.18148719 2.88369203 67.4318235 -1 58 C-0.73942346 55.33690772 -0.23169767 54.24225464 1.62890625 52.296875 C4.31445312 50.1484375 4.31445312 50.1484375 7 48 C4.03 49.32 1.06 50.64 -2 52 C-3.61998175 47.14005474 -3.19074955 42.15237727 -3.1875 37.0625 C-3.18741943 35.90419678 -3.18733887 34.74589355 -3.18725586 33.55249023 C-3.02749709 9.08249126 -3.02749709 9.08249126 0 0 Z " fill="#2750AE" transform="translate(14,229)"/>
<path d="M0 0 C5.22153628 0.50464552 8.98750071 3.20118171 13.3125 5.9375 C14.10503174 6.42968018 14.89756348 6.92186035 15.71411133 7.42895508 C19.56012146 9.82164479 23.3870894 12.24397716 27.2109375 14.671875 C37.43023758 21.14625278 47.73797408 27.49518963 59 32 C59 52.79 59 73.58 59 95 C54.30722801 93.43574267 50.16577841 91.68576987 45.8125 89.4375 C41.28412909 87.12286882 36.74640187 84.86118041 32.1171875 82.75390625 C20.32356596 77.37949438 8.63658795 71.9760605 1 61 C0.58878906 60.45472656 0.17757813 59.90945312 -0.24609375 59.34765625 C-4.4297957 52.73190611 -3.79947817 44.5027951 -3 37 C-1.98481089 33.8494131 -0.84905124 31.77357685 1 29 C0.01 29.33 -0.98 29.66 -2 30 C-2.40820882 19.90817093 -1.16108676 10.00400644 0 0 Z " fill="#2751AE" transform="translate(372,59)"/>
<path d="M0 0 C0.11648741 7.25898852 0.20501241 14.51777148 0.25906086 21.77750969 C0.28501814 25.14953797 0.32015506 28.52092106 0.37719727 31.89257812 C0.43820924 35.78011759 0.4662944 39.6667547 0.48828125 43.5546875 C0.51408768 44.74988007 0.5398941 45.94507263 0.56648254 47.17648315 C0.56900878 54.80510467 -0.54438902 60.67721258 -5 67 C-10.3138849 72.18284555 -17.1080679 75.39118146 -23.625 78.8125 C-31.32522388 82.92681957 -38.76701125 87.21615921 -46.02734375 92.0625 C-55.13709677 98 -55.13709677 98 -59 98 C-59 76.55 -59 55.1 -59 33 C-52.73 29.7 -46.46 26.4 -40 23 C-35.84745093 20.50307445 -31.754501 17.99785963 -27.6875 15.375 C-25.65876637 14.08792775 -23.62882316 12.80276003 -21.59765625 11.51953125 C-20.64262207 10.9157666 -19.68758789 10.31200195 -18.70361328 9.68994141 C-3.20138688 0 -3.20138688 0 0 0 Z " fill="#1A4187" transform="translate(140,228)"/>
<path d="M0 0 C4.65077733 1.36497852 8.58910709 3.33999785 12.6875 5.875 C13.32977539 6.26502197 13.97205078 6.65504395 14.63378906 7.05688477 C18.29816965 9.29453117 21.92522599 11.58580712 25.53515625 13.91015625 C26.7104187 14.66353271 26.7104187 14.66353271 27.90942383 15.43212891 C29.38935494 16.38396527 30.86505266 17.34244508 32.3347168 18.31005859 C40.95205154 23.8607296 49.8088504 28.16255284 59 33 C59 53.46 59 73.92 59 95 C44.92991914 89.13746631 44.92991914 89.13746631 39.8125 86.8125 C38.72582031 86.32394531 37.63914063 85.83539063 36.51953125 85.33203125 C34 84 34 84 33 82 C32.30261719 81.8659375 31.60523438 81.731875 30.88671875 81.59375 C20.7582335 79.51048916 9.47714842 71.83193047 3 64 C1.21406108 60.75761356 -0.02137017 57.56368975 -1 54 C-1.26151855 53.0862561 -1.26151855 53.0862561 -1.52832031 52.15405273 C-2.44625165 47.96207129 -2.19023093 43.64889841 -2.1875 39.375 C-2.18814453 38.33279297 -2.18878906 37.29058594 -2.18945312 36.21679688 C-2.11026182 24.10052722 -1.10381315 12.05974583 0 0 Z " fill="#2751AF" transform="translate(200,58)"/>
<path d="M0 0 C0.06964741 7.71933412 0.12288592 15.43863547 0.15543652 23.15821266 C0.17106279 26.74312092 0.1922448 30.3278135 0.22631836 33.91259766 C0.25902129 37.37502525 0.27687586 40.83724596 0.28463173 44.29981613 C0.29283593 46.2573708 0.31623793 48.21484276 0.33988953 50.17227173 C0.34011612 51.37306366 0.34034271 52.57385559 0.34057617 53.81103516 C0.34723801 54.86360504 0.35389984 55.91617493 0.36076355 57.00064087 C-0.1535982 61.27700309 -1.67811493 64.66250138 -4.71557617 67.73583984 C-9.68989948 71.28938691 -14.78108444 74.03953922 -20.3125 76.625 C-28.52407367 80.57926329 -36.204447 85.06207136 -43.81958008 90.06494141 C-52.88225446 96 -52.88225446 96 -59 96 C-59 75.87 -59 55.74 -59 35 C-56.69 33.68 -54.38 32.36 -52 31 C-50.9713296 30.02951702 -49.96410997 29.03464582 -49 28 C-47.71627471 27.13930895 -46.40309607 26.32164007 -45.0703125 25.5390625 C-44.28479004 25.07363037 -43.49926758 24.60819824 -42.68994141 24.12866211 C-41.84351074 23.63245361 -40.99708008 23.13624512 -40.125 22.625 C-31.67253726 17.61990458 -23.30091356 12.50027566 -14.98095703 7.27783203 C-3.31960105 0 -3.31960105 0 0 0 Z " fill="#1A4187" transform="translate(329,57)"/>
<path d="M0 0 C0.66 0.33 1.32 0.66 2 1 C-4.12399974 7.60222966 -10.5736082 14.41457676 -19 18 C-21.82421875 17.67578125 -21.82421875 17.67578125 -24 17 C-24 16.01 -24 15.02 -24 14 C-21.82861328 12.35839844 -21.82861328 12.35839844 -18.8203125 10.609375 C-17.74652344 9.98289062 -16.67273438 9.35640625 -15.56640625 8.7109375 C-14.43074219 8.06382812 -13.29507813 7.41671875 -12.125 6.75 C-10.43310547 5.75613281 -10.43310547 5.75613281 -8.70703125 4.7421875 C-2.47482939 1.14467696 -2.47482939 1.14467696 0 0 Z " fill="#345FD4" transform="translate(233,452)"/>
<path d="M0 0 C0.48046875 2.67578125 0.48046875 2.67578125 0 6 C-2.2684105 8.21222695 -4.9326875 9.65065508 -7.6875 11.1875 C-8.7693457 11.82461914 -8.7693457 11.82461914 -9.87304688 12.47460938 C-11.27375671 13.29712666 -12.68100237 14.10863674 -14.09521484 14.90771484 C-15.72504911 15.84233142 -17.31475368 16.84633941 -18.89453125 17.86328125 C-19.58933594 18.23839844 -20.28414063 18.61351562 -21 19 C-21.66 18.67 -22.32 18.34 -23 18 C-20.39244773 15.86654814 -17.78469007 13.7333557 -15.17578125 11.6015625 C-13.06344889 9.87382481 -10.95721309 8.13903704 -8.85546875 6.3984375 C-7.87191406 5.58632813 -6.88835937 4.77421875 -5.875 3.9375 C-4.96492188 3.18339844 -4.05484375 2.42929687 -3.1171875 1.65234375 C-1 0 -1 0 0 0 Z " fill="#335DD1" transform="translate(329,431)"/>
<path d="M0 0 C1.3303125 0.4021875 1.3303125 0.4021875 2.6875 0.8125 C2.6875 1.8025 2.6875 2.7925 2.6875 3.8125 C0.97509766 5.17871094 0.97509766 5.17871094 -1.3984375 6.546875 C-2.24664062 7.03800781 -3.09484375 7.52914063 -3.96875 8.03515625 C-4.8659375 8.53917969 -5.763125 9.04320312 -6.6875 9.5625 C-7.57695313 10.08199219 -8.46640625 10.60148437 -9.3828125 11.13671875 C-14.30431612 13.94794127 -14.30431612 13.94794127 -16.3125 14.8125 C-16.9725 14.4825 -17.6325 14.1525 -18.3125 13.8125 C-17.64863281 13.22082031 -16.98476563 12.62914062 -16.30078125 12.01953125 C-15.41777344 11.22933594 -14.53476562 10.43914062 -13.625 9.625 C-12.25021484 8.40103516 -12.25021484 8.40103516 -10.84765625 7.15234375 C-8.9365864 5.38850579 -7.24833423 3.6515247 -5.5625 1.6875 C-3.3125 -0.1875 -3.3125 -0.1875 0 0 Z " fill="#335ED3" transform="translate(59.3125,256.1875)"/>
<path d="M0 0 C1.65 0.66 3.3 1.32 5 2 C3.87363302 5.37910095 3.52960983 5.56658756 0.578125 7.19140625 C-0.11796875 7.57876953 -0.8140625 7.96613281 -1.53125 8.36523438 C-2.62953125 8.95788086 -2.62953125 8.95788086 -3.75 9.5625 C-4.46671875 9.96146484 -5.1834375 10.36042969 -5.921875 10.77148438 C-9.53994303 12.76341705 -13.10947367 14.58317447 -17 16 C-13.33090512 12.27644731 -9.55325121 8.7056624 -5.6875 5.1875 C-5.13771484 4.68541016 -4.58792969 4.18332031 -4.02148438 3.66601562 C-2.68194761 2.44296032 -1.34111008 1.22132992 0 0 Z " fill="#335DD1" transform="translate(249,427)"/>
<path d="M0 0 C0 3.88673756 -1.18417172 4.72042378 -3.75 7.5625 C-4.44609375 8.34753906 -5.1421875 9.13257813 -5.859375 9.94140625 C-7.88251239 11.88701466 -9.38046682 13.03914664 -12 14 C-14.75 13.625 -14.75 13.625 -17 13 C-17 12.01 -17 11.02 -17 10 C-15.43945312 8.74145508 -15.43945312 8.74145508 -13.28125 7.51953125 C-12.51425781 7.07802734 -11.74726563 6.63652344 -10.95703125 6.18164062 C-10.14621094 5.72982422 -9.33539063 5.27800781 -8.5 4.8125 C-7.68917969 4.34908203 -6.87835938 3.88566406 -6.04296875 3.40820312 C-4.03412709 2.26198171 -2.01991195 1.12656228 0 0 Z " fill="#335ED4" transform="translate(245,126)"/>
<path d="M0 0 C0.66 0.33 1.32 0.66 2 1 C-0.04142311 2.72945489 -2.08313202 4.45857048 -4.125 6.1875 C-4.69476563 6.67025391 -5.26453125 7.15300781 -5.8515625 7.65039062 C-6.99762274 8.62063481 -8.14508663 9.58922341 -9.29394531 10.55615234 C-10.43560529 11.52234826 -11.5703756 12.49674172 -12.69824219 13.47900391 C-16.78433642 17 -16.78433642 17 -19 17 C-19.5859375 14.37109375 -19.5859375 14.37109375 -19 11 C-16.17206794 8.50601971 -12.93947115 6.8316466 -9.625 5.0625 C-8.73554688 4.55654297 -7.84609375 4.05058594 -6.9296875 3.52929688 C-2.14036654 0.86977243 -2.14036654 0.86977243 0 0 Z " fill="#325DD1" transform="translate(288,452)"/>
<path d="M0 0 C2.475 0.99 2.475 0.99 5 2 C3.60876681 6.17369956 0.71569074 7.22246104 -2.9375 9.25 C-3.58396484 9.62640625 -4.23042969 10.0028125 -4.89648438 10.390625 C-6.56003673 11.33036797 -8.27751916 12.1732092 -10 13 C-10.66 12.67 -11.32 12.34 -12 12 C-8.04 8.04 -4.08 4.08 0 0 Z " fill="#335ED3" transform="translate(412,83)"/>
<path d="M0 0 C4 1 4 1 6 2 C4.64649404 6.06051787 2.72487336 6.64228453 -0.9375 8.75 C-2.01902344 9.38421875 -3.10054688 10.0184375 -4.21484375 10.671875 C-5.13394531 11.11015625 -6.05304688 11.5484375 -7 12 C-7.66 11.67 -8.32 11.34 -9 11 C-6.03 7.37 -3.06 3.74 0 0 Z " fill="#335DD1" transform="translate(397,74)"/>
<path d="M0 0 C0.66 0.33 1.32 0.66 2 1 C-0.43099632 3.15329573 -2.87085256 5.29629403 -5.3125 7.4375 C-6.00279297 8.04916016 -6.69308594 8.66082031 -7.40429688 9.29101562 C-8.07138672 9.87431641 -8.73847656 10.45761719 -9.42578125 11.05859375 C-10.34484253 11.86768188 -10.34484253 11.86768188 -11.2824707 12.69311523 C-13 14 -13 14 -16 15 C-16.25390625 12.69140625 -16.25390625 12.69140625 -16 10 C-14.27734375 8.33984375 -14.27734375 8.33984375 -11.9375 6.9375 C-11.12023437 6.43992187 -10.30296875 5.94234375 -9.4609375 5.4296875 C-8.24277344 4.72199219 -8.24277344 4.72199219 -7 4 C-6.31164062 3.56945312 -5.62328125 3.13890625 -4.9140625 2.6953125 C-3.32043033 1.72030548 -1.66415254 0.84905742 0 0 Z " fill="#325DD0" transform="translate(456,112)"/>
<path d="M0 0 C0.3984375 3.21875 0.3984375 3.21875 0 7 C-2.20687578 8.96443028 -3.84081171 10.14201725 -6.375 11.5 C-6.97828125 11.85835938 -7.5815625 12.21671875 -8.203125 12.5859375 C-9.9609375 13.59375 -9.9609375 13.59375 -13 15 C-13.66 14.67 -14.32 14.34 -15 14 C-12.69152056 11.66265901 -10.37756659 9.33081534 -8.0625 7 C-7.40314453 6.33226562 -6.74378906 5.66453125 -6.06445312 4.9765625 C-5.43603516 4.34492188 -4.80761719 3.71328125 -4.16015625 3.0625 C-3.57886963 2.47597656 -2.99758301 1.88945312 -2.39868164 1.28515625 C-1 0 -1 0 0 0 Z " fill="#335ED2" transform="translate(260,440)"/>
<path d="M0 0 C0.38671875 2.23828125 0.38671875 2.23828125 0 5 C-2.0816271 6.69151251 -3.87428521 7.90737143 -6.1875 9.1875 C-6.76564453 9.52974609 -7.34378906 9.87199219 -7.93945312 10.22460938 C-11.19560745 12.11943365 -14.46513344 13.70188516 -18 15 C-3.48387097 0 -3.48387097 0 0 0 Z " fill="#325DD0" transform="translate(498,91)"/>
<path d="M0 0 C1.65 0.33 3.3 0.66 5 1 C5.33 1.99 5.66 2.98 6 4 C4.04754815 5.19714555 2.08785003 6.38248074 0.125 7.5625 C-0.96554688 8.22378906 -2.05609375 8.88507813 -3.1796875 9.56640625 C-4.11039063 10.03949219 -5.04109375 10.51257813 -6 11 C-6.66 10.67 -7.32 10.34 -8 10 C-5.36 6.7 -2.72 3.4 0 0 Z " fill="#335ED4" transform="translate(222,412)"/>
<path d="M0 0 C0.4921875 2.1640625 0.4921875 2.1640625 0 5 C-2.36805324 7.20419593 -5.08913144 8.75110055 -7.875 10.375 C-8.62136719 10.83777344 -9.36773437 11.30054687 -10.13671875 11.77734375 C-14.20223525 14.23130416 -14.20223525 14.23130416 -16 15 C-16.66 14.67 -17.32 14.34 -18 14 C-15.19074914 11.6627317 -12.37707397 9.33085422 -9.5625 7 C-8.76005859 6.33226563 -7.95761719 5.66453125 -7.13085938 4.9765625 C-6.36708984 4.34492187 -5.60332031 3.71328125 -4.81640625 3.0625 C-4.10943604 2.47597656 -3.40246582 1.88945313 -2.67407227 1.28515625 C-1 0 -1 0 0 0 Z " fill="#2F59C8" transform="translate(328,75)"/>
<path d="M0 0 C0.66 0.33 1.32 0.66 2 1 C-6.30108407 9.51094293 -6.30108407 9.51094293 -9 11 C-11.1875 10.8125 -11.1875 10.8125 -13 10 C-13.33 9.34 -13.66 8.68 -14 8 C-11.7136988 6.63597957 -9.42178251 5.28365726 -7.125 3.9375 C-6.47402344 3.54755859 -5.82304688 3.15761719 -5.15234375 2.75585938 C-3.46934275 1.77555467 -1.73703801 0.88101568 0 0 Z " fill="#335ED2" transform="translate(39,292)"/>
<path d="M0 0 C0.66 0.33 1.32 0.66 2 1 C-4.435 6.94 -4.435 6.94 -11 13 C-11.66 12.67 -12.32 12.34 -13 12 C-13 10.68 -13 9.36 -13 8 C-10.87856238 6.33571725 -8.93800775 5.02211523 -6.625 3.6875 C-6.02171875 3.31560547 -5.4184375 2.94371094 -4.796875 2.56054688 C-3.2403847 1.63184099 -1.62281466 0.80723557 0 0 Z " fill="#335ED3" transform="translate(214,446)"/>
<path d="M0 0 C0.33 0.66 0.66 1.32 1 2 C0.22265625 3.7265625 0.22265625 3.7265625 -0.9375 5.625 C-1.618125 6.73875 -2.29875 7.8525 -3 9 C-5.97 8.505 -5.97 8.505 -9 8 C-9 7.01 -9 6.02 -9 5 C-6.03 3.35 -3.06 1.7 0 0 Z " fill="#335DD1" transform="translate(422,138)"/>
<path d="M0 0 C0.66 0.33 1.32 0.66 2 1 C-0.09396201 2.86694188 -2.19870197 4.71826176 -4.3125 6.5625 C-4.90740234 7.09552734 -5.50230469 7.62855469 -6.11523438 8.17773438 C-7.67819037 9.53113202 -9.33487746 10.7744864 -11 12 C-11.99 11.67 -12.98 11.34 -14 11 C-14 10.01 -14 9.02 -14 8 C-11.7136988 6.63597957 -9.42178251 5.28365726 -7.125 3.9375 C-6.47402344 3.54755859 -5.82304687 3.15761719 -5.15234375 2.75585938 C-3.46934275 1.77555467 -1.73703801 0.88101568 0 0 Z " fill="#325DD0" transform="translate(389,112)"/>
<path d="M0 0 C0.66 0.33 1.32 0.66 2 1 C0.27427512 2.44163007 -1.4557347 3.87813165 -3.1875 5.3125 C-4.63189453 6.51326172 -4.63189453 6.51326172 -6.10546875 7.73828125 C-8.65588917 9.73111988 -11.18642401 11.41061246 -14 13 C-14 11.35 -14 9.7 -14 8 C-11.7136988 6.63597957 -9.42178251 5.28365726 -7.125 3.9375 C-6.47402344 3.54755859 -5.82304687 3.15761719 -5.15234375 2.75585938 C-3.46934275 1.77555467 -1.73703801 0.88101568 0 0 Z " fill="#315CCE" transform="translate(284,98)"/>
<path d="M0 0 C-0.12890625 1.76171875 -0.12890625 1.76171875 -1 4 C-3.65234375 5.95703125 -3.65234375 5.95703125 -6.9375 7.8125 C-8.01902344 8.43769531 -9.10054688 9.06289062 -10.21484375 9.70703125 C-11.13394531 10.13371094 -12.05304688 10.56039062 -13 11 C-13.66 10.67 -14.32 10.34 -15 10 C-13.26074063 8.32071509 -11.51014966 6.65713835 -9.75 5 C-9.25886719 4.52304688 -8.76773437 4.04609375 -8.26171875 3.5546875 C-5.17714269 0.67574985 -4.39802077 0 0 0 Z " fill="#335DD2" transform="translate(431,91)"/>
<path d="M0 0 C0.66 0.33 1.32 0.66 2 1 C0.45519587 2.53880489 -1.1115694 4.05558825 -2.6875 5.5625 C-3.55761719 6.40941406 -4.42773438 7.25632813 -5.32421875 8.12890625 C-8 10 -8 10 -10.83203125 9.77734375 C-11.90517578 9.39255859 -11.90517578 9.39255859 -13 9 C-9.49391962 4.88416651 -4.95371163 2.09432982 0 0 Z " fill="#335ED3" transform="translate(398,122)"/>
<path d="M0 0 C0.66 0.33 1.32 0.66 2 1 C0.75645114 2.29787866 -0.4951264 3.58806759 -1.75 4.875 C-2.44609375 5.59429687 -3.1421875 6.31359375 -3.859375 7.0546875 C-5.85122217 8.86479679 -7.5427658 9.94848086 -10 11 C-10.33 9.68 -10.66 8.36 -11 7 C-9.21475351 5.80286983 -7.4215972 4.61752721 -5.625 3.4375 C-4.62726563 2.77621094 -3.62953125 2.11492187 -2.6015625 1.43359375 C-1.74304688 0.96050781 -0.88453125 0.48742187 0 0 Z " fill="#335DD2" transform="translate(380,100)"/>
<path d="M0 0 C0.66 0.33 1.32 0.66 2 1 C-0.14335152 2.83630673 -2.28950298 4.66914181 -4.4375 6.5 C-5.35499023 7.28697266 -5.35499023 7.28697266 -6.29101562 8.08984375 C-10.88671875 12 -10.88671875 12 -12 12 C-12.3671875 9.7421875 -12.3671875 9.7421875 -12 7 C-9.4453125 4.9453125 -9.4453125 4.9453125 -6.125 3.125 C-5.03445313 2.50882812 -3.94390625 1.89265625 -2.8203125 1.2578125 C-1.88960938 0.84273438 -0.95890625 0.42765625 0 0 Z " fill="#315CCD" transform="translate(281,474)"/>
<path d="M0 0 C0 1.32 0 2.64 0 4 C-2.5546875 5.95703125 -2.5546875 5.95703125 -5.875 7.8125 C-6.96554687 8.43769531 -8.05609375 9.06289063 -9.1796875 9.70703125 C-10.11039062 10.13371094 -11.04109375 10.56039063 -12 11 C-12.66 10.67 -13.32 10.34 -14 10 C-12.04653795 8.32731078 -10.08770186 6.66178419 -8.125 5 C-7.56941406 4.52304687 -7.01382812 4.04609375 -6.44140625 3.5546875 C-2.2265625 0 -2.2265625 0 0 0 Z " fill="#315BCC" transform="translate(328,450)"/>
<path d="M0 0 C0.66 0.33 1.32 0.66 2 1 C-3.75 5 -3.75 5 -6 5 C-6 9.95 -6 14.9 -6 20 C-6.33 20 -6.66 20 -7 20 C-7 14.39 -7 8.78 -7 3 C-4.69 2.01 -2.38 1.02 0 0 Z " fill="#1F3A6F" transform="translate(275,429)"/>
<path d="M0 0 C2.0625 0.4375 2.0625 0.4375 4 1 C4 1.99 4 2.98 4 4 C-1.2734375 7.22265625 -1.2734375 7.22265625 -3 8 C-3.66 7.67 -4.32 7.34 -5 7 C-1.125 1.125 -1.125 1.125 0 0 Z " fill="#335ED4" transform="translate(234,79)"/>
<path d="M0 0 C-0.66 1.98 -1.32 3.96 -2 6 C-3.65 6.33 -5.3 6.66 -7 7 C-7 5.68 -7 4.36 -7 3 C-2.92857143 0 -2.92857143 0 0 0 Z " fill="#335ED3" transform="translate(254,141)"/>
<path d="M0 0 C0.66 0.33 1.32 0.66 2 1 C0.23977508 2.53309913 -1.53353463 4.05118701 -3.3125 5.5625 C-4.79169922 6.83287109 -4.79169922 6.83287109 -6.30078125 8.12890625 C-7.19152344 8.74636719 -8.08226562 9.36382812 -9 10 C-9.99 9.67 -10.98 9.34 -12 9 C-8.63378119 5.21300384 -4.58358196 2.1727369 0 0 Z " fill="#325DCF" transform="translate(218,116)"/>
<path d="M0 0 C0.66 0.33 1.32 0.66 2 1 C-3.445 5.455 -3.445 5.455 -9 10 C-9.33 8.68 -9.66 7.36 -10 6 C-8.3811004 4.96951963 -6.75467511 3.95085322 -5.125 2.9375 C-4.22007812 2.36902344 -3.31515625 1.80054688 -2.3828125 1.21484375 C-1.20332031 0.61349609 -1.20332031 0.61349609 0 0 Z " fill="#315CCE" transform="translate(279,442)"/>
<path d="M0 0 C0.33 1.32 0.66 2.64 1 4 C-0.6188996 5.03048037 -2.24532489 6.04914678 -3.875 7.0625 C-4.77992188 7.63097656 -5.68484375 8.19945312 -6.6171875 8.78515625 C-7.40351563 9.18605469 -8.18984375 9.58695312 -9 10 C-9.66 9.67 -10.32 9.34 -11 9 C-7.37 6.03 -3.74 3.06 0 0 Z " fill="#315CCE" transform="translate(327,416)"/>
<path d="M0 0 C0.66 0.33 1.32 0.66 2 1 C-1.3 3.64 -4.6 6.28 -8 9 C-8.33 7.68 -8.66 6.36 -9 5 C-7.54735962 4.1361871 -6.0876837 3.28419546 -4.625 2.4375 C-3.40683594 1.72400391 -3.40683594 1.72400391 -2.1640625 0.99609375 C-1.44992188 0.66738281 -0.73578125 0.33867187 0 0 Z " fill="#315CCD" transform="translate(90,269)"/>
<path d="M0 0 C-0.66 1.98 -1.32 3.96 -2 6 C-3.65 5.67 -5.3 5.34 -7 5 C-7 4.34 -7 3.68 -7 3 C-2.61538462 0 -2.61538462 0 0 0 Z " fill="#335DCF" transform="translate(256,485)"/>
<path d="M0 0 C1.32 0.33 2.64 0.66 4 1 C4 1.66 4 2.32 4 3 C0.04 4.98 0.04 4.98 -4 7 C-2 3 -2 3 0 0 Z " fill="#335DD0" transform="translate(33,241)"/>
<path d="M0 0 C0.66 0.33 1.32 0.66 2 1 C0.93283928 2.20205464 -0.15438337 3.38632333 -1.25 4.5625 C-2.15492188 5.55443359 -2.15492188 5.55443359 -3.078125 6.56640625 C-5 8 -5 8 -7.234375 7.71484375 C-7.81703125 7.47894531 -8.3996875 7.24304688 -9 7 C-6.03716687 4.61327331 -3.05729491 2.2646629 0 0 Z " fill="#305AD4" transform="translate(408,131)"/>
<path d="M0 0 C0.66 0.33 1.32 0.66 2 1 C0.88121617 2.17262904 -0.24523051 3.33795138 -1.375 4.5 C-2.00148437 5.1496875 -2.62796875 5.799375 -3.2734375 6.46875 C-5 8 -5 8 -7 8 C-7 6.68 -7 5.36 -7 4 C-1.7265625 0.77734375 -1.7265625 0.77734375 0 0 Z " fill="#345ED5" transform="translate(205,94)"/>
<path d="M0 0 C0.66 0.33 1.32 0.66 2 1 C-1.3 3.64 -4.6 6.28 -8 9 C-8.33 8.01 -8.66 7.02 -9 6 C-6.03 4.02 -3.06 2.04 0 0 Z " fill="#305BCC" transform="translate(449,87)"/>
<path d="M0 0 C0 0.99 0 1.98 0 3 C-1.6796875 4.421875 -1.6796875 4.421875 -3.875 5.75 C-4.59429687 6.19859375 -5.31359375 6.6471875 -6.0546875 7.109375 C-6.69664062 7.40328125 -7.33859375 7.6971875 -8 8 C-8.66 7.67 -9.32 7.34 -10 7 C-8.71372289 5.82739389 -7.42080217 4.6620717 -6.125 3.5 C-5.04605469 2.52546875 -5.04605469 2.52546875 -3.9453125 1.53125 C-2 0 -2 0 0 0 Z " fill="#315CCD" transform="translate(140,243)"/>
<path d="M0 0 C0.66 0 1.32 0 2 0 C1.67 2.31 1.34 4.62 1 7 C-0.32 7.33 -1.64 7.66 -3 8 C-1.125 2.25 -1.125 2.25 0 0 Z " fill="#1F4592" transform="translate(506,118)"/>
<path d="M0 0 C0.66 0.33 1.32 0.66 2 1 C-2.455 4.465 -2.455 4.465 -7 8 C-7.33 7.01 -7.66 6.02 -8 5 C-6.71475739 4.13619741 -5.42157581 3.28419631 -4.125 2.4375 C-3.04605469 1.72400391 -3.04605469 1.72400391 -1.9453125 0.99609375 C-1.30335938 0.66738281 -0.66140625 0.33867187 0 0 Z " fill="#2E58C5" transform="translate(277,429)"/>
<path d="M0 0 C0.66 0.33 1.32 0.66 2 1 C-2.455 4.465 -2.455 4.465 -7 8 C-7.33 7.01 -7.66 6.02 -8 5 C-6.71475739 4.13619741 -5.42157581 3.28419631 -4.125 2.4375 C-3.04605469 1.72400391 -3.04605469 1.72400391 -1.9453125 0.99609375 C-1.30335938 0.66738281 -0.66140625 0.33867188 0 0 Z " fill="#2E58C3" transform="translate(278,87)"/>
<path d="M0 0 C0.33 0 0.66 0 1 0 C1.1875 2.375 1.1875 2.375 1 5 C0.01 5.66 -0.98 6.32 -2 7 C-2.99 6.67 -3.98 6.34 -5 6 C-3.35830472 3.97945196 -1.69088222 1.97956942 0 0 Z " fill="#335ED3" transform="translate(327,75)"/>
<path d="M0 0 C0.66 0 1.32 0 2 0 C2.3125 2.3125 2.3125 2.3125 2 5 C-0.5 6.8125 -0.5 6.8125 -3 8 C-2.690625 7.236875 -2.38125 6.47375 -2.0625 5.6875 C-1.32106407 3.81210323 -0.63771783 1.91315348 0 0 Z " fill="#3057CD" transform="translate(335,460)"/>
<path d="M0 0 C0.66 0.33 1.32 0.66 2 1 C-0.64 2.98 -3.28 4.96 -6 7 C-6.33 6.01 -6.66 5.02 -7 4 C-1.7265625 0.77734375 -1.7265625 0.77734375 0 0 Z " fill="#315BCB" transform="translate(447,103)"/>
<path d="M0 0 C0.33 0.99 0.66 1.98 1 3 C-4.2734375 6.22265625 -4.2734375 6.22265625 -6 7 C-6.66 6.67 -7.32 6.34 -8 6 C-5.36 4.02 -2.72 2.04 0 0 Z " fill="#305AC9" transform="translate(327,61)"/>
<path d="M0 0 C0.99 0.33 1.98 0.66 3 1 C-2.14285714 5.42857143 -2.14285714 5.42857143 -6 6 C-4 4 -2 2 0 0 Z " fill="#2D57C2" transform="translate(312,444)"/>
</svg>
